<svg width="24" height="25" viewBox="0 0 24 25" fill="none" xmlns="http://www.w3.org/2000/svg">
<path d="M12.92 2.78719L19.43 6.29719C20.19 6.70719 20.19 7.87719 19.43 8.28719L12.92 11.7972C12.34 12.1072 11.66 12.1072 11.08 11.7972L4.57 8.28719C3.81 7.87719 3.81 6.70719 4.57 6.29719L11.08 2.78719C11.66 2.47719 12.34 2.47719 12.92 2.78719Z" stroke="white" stroke-linecap="round" stroke-linejoin="round"/>
<path d="M3.61 10.659L9.66 13.689C10.41 14.069 10.89 14.839 10.89 15.679V21.399C10.89 22.229 10.02 22.759 9.28 22.389L3.23 19.359C2.48 18.979 2 18.209 2 17.369V11.649C2 10.819 2.87 10.289 3.61 10.659Z" stroke="white" stroke-linecap="round" stroke-linejoin="round"/>
<path d="M20.3904 10.659L14.3404 13.689C13.5904 14.069 13.1104 14.839 13.1104 15.679V21.399C13.1104 22.229 13.9804 22.759 14.7204 22.389L20.7704 19.359C21.5204 18.979 22.0004 18.209 22.0004 17.369V11.649C22.0004 10.819 21.1304 10.289 20.3904 10.659Z" stroke="white" stroke-linecap="round" stroke-linejoin="round"/>
</svg>
