<svg width="24" height="25" viewBox="0 0 24 25" fill="none" xmlns="http://www.w3.org/2000/svg">
<path d="M2 13.1367H19" stroke="#CCCCCC" stroke-miterlimit="10" stroke-linecap="round" stroke-linejoin="round"/>
<path d="M19 10.8081V17.9581C18.97 20.8081 18.19 21.5281 15.22 21.5281H5.78003C2.76003 21.5281 2 20.7781 2 17.7981V10.8081C2 8.10812 2.63 7.23813 5 7.09813C5.24 7.08813 5.50003 7.07812 5.78003 7.07812H15.22C18.24 7.07812 19 7.82812 19 10.8081Z" stroke="#CCCCCC" stroke-linecap="round" stroke-linejoin="round"/>
<path d="M22 7.25734V14.2473C22 16.9473 21.37 17.8173 19 17.9573V10.8073C19 7.82734 18.24 7.07734 15.22 7.07734H5.78003C5.50003 7.07734 5.24 7.08734 5 7.09734C5.03 4.24734 5.81003 3.52734 8.78003 3.52734H18.22C21.24 3.52734 22 4.27734 22 7.25734Z" stroke="#CCCCCC" stroke-linecap="round" stroke-linejoin="round"/>
<path d="M5.25 18.3359H6.96997" stroke="#CCCCCC" stroke-miterlimit="10" stroke-linecap="round" stroke-linejoin="round"/>
<path d="M9.11035 18.3359H12.5504" stroke="#CCCCCC" stroke-miterlimit="10" stroke-linecap="round" stroke-linejoin="round"/>
</svg>
