<svg width="24" height="25" viewBox="0 0 24 25" fill="none" xmlns="http://www.w3.org/2000/svg">
<path d="M22 10.5273V13.5273C22 17.5273 20 19.5273 16 19.5273H15.5C15.19 19.5273 14.89 19.6773 14.7 19.9273L13.2 21.9273C12.54 22.8073 11.46 22.8073 10.8 21.9273L9.3 19.9273C9.14 19.7073 8.77 19.5273 8.5 19.5273H8C4 19.5273 2 18.5273 2 13.5273V8.52734C2 4.52734 4 2.52734 8 2.52734H14" stroke="#CCCCCC" stroke-miterlimit="10" stroke-linecap="round" stroke-linejoin="round"/>
<path d="M19.5 7.52734C20.8807 7.52734 22 6.40806 22 5.02734C22 3.64663 20.8807 2.52734 19.5 2.52734C18.1193 2.52734 17 3.64663 17 5.02734C17 6.40806 18.1193 7.52734 19.5 7.52734Z" stroke="#CCCCCC" stroke-linecap="round" stroke-linejoin="round"/>
<path d="M15.9965 11.5273H16.0054" stroke="#CCCCCC" stroke-linecap="round" stroke-linejoin="round"/>
<path d="M11.9955 11.5273H12.0045" stroke="#CCCCCC" stroke-linecap="round" stroke-linejoin="round"/>
<path d="M7.99451 11.5273H8.00349" stroke="#CCCCCC" stroke-linecap="round" stroke-linejoin="round"/>
</svg>
