<svg width="24" height="25" viewBox="0 0 24 25" fill="none" xmlns="http://www.w3.org/2000/svg">
<path d="M17 18.9571H13L8.54999 21.9171C7.88999 22.3571 7 21.8871 7 21.0871V18.9571C4 18.9571 2 16.9571 2 13.9571V7.95703C2 4.95703 4 2.95703 7 2.95703H17C20 2.95703 22 4.95703 22 7.95703V13.9571C22 16.9571 20 18.9571 17 18.9571Z" stroke="#CCCCCC" stroke-miterlimit="10" stroke-linecap="round" stroke-linejoin="round"/>
<path d="M11.9998 11.8867V11.6768C11.9998 10.9968 12.4198 10.6367 12.8398 10.3467C13.2498 10.0667 13.6598 9.70675 13.6598 9.04675C13.6598 8.12675 12.9198 7.38672 11.9998 7.38672C11.0798 7.38672 10.3398 8.12675 10.3398 9.04675" stroke="#CCCCCC" stroke-linecap="round" stroke-linejoin="round"/>
<path d="M11.9955 14.2773H12.0045" stroke="#CCCCCC" stroke-linecap="round" stroke-linejoin="round"/>
</svg>
