<svg width="24" height="25" viewBox="0 0 24 25" fill="none" xmlns="http://www.w3.org/2000/svg">
<path d="M18.0001 7.68735C17.9401 7.67735 17.8701 7.67735 17.8101 7.68735C16.4301 7.63735 15.3301 6.50735 15.3301 5.10735C15.3301 3.67735 16.4801 2.52734 17.9101 2.52734C19.3401 2.52734 20.4901 3.68735 20.4901 5.10735C20.4801 6.50735 19.3801 7.63735 18.0001 7.68735Z" stroke="#CCCCCC" stroke-linecap="round" stroke-linejoin="round"/>
<path d="M16.9704 14.9675C18.3404 15.1975 19.8504 14.9575 20.9104 14.2475C22.3204 13.3075 22.3204 11.7675 20.9104 10.8275C19.8404 10.1175 18.3104 9.8775 16.9404 10.1175" stroke="#CCCCCC" stroke-linecap="round" stroke-linejoin="round"/>
<path d="M5.97047 7.68735C6.03047 7.67735 6.10047 7.67735 6.16047 7.68735C7.54047 7.63735 8.64047 6.50735 8.64047 5.10735C8.64047 3.67735 7.49047 2.52734 6.06047 2.52734C4.63047 2.52734 3.48047 3.68735 3.48047 5.10735C3.49047 6.50735 4.59047 7.63735 5.97047 7.68735Z" stroke="#CCCCCC" stroke-linecap="round" stroke-linejoin="round"/>
<path d="M7.00043 14.9675C5.63043 15.1975 4.12043 14.9575 3.06043 14.2475C1.65043 13.3075 1.65043 11.7675 3.06043 10.8275C4.13043 10.1175 5.66043 9.8775 7.03043 10.1175" stroke="#CCCCCC" stroke-linecap="round" stroke-linejoin="round"/>
<path d="M12.0001 15.1561C11.9401 15.1461 11.8701 15.1461 11.8101 15.1561C10.4301 15.1061 9.33008 13.9761 9.33008 12.5761C9.33008 11.1461 10.4801 9.99609 11.9101 9.99609C13.3401 9.99609 14.4901 11.1561 14.4901 12.5761C14.4801 13.9761 13.3801 15.1161 12.0001 15.1561Z" stroke="#CCCCCC" stroke-linecap="round" stroke-linejoin="round"/>
<path d="M9.08973 18.3067C7.67973 19.2467 7.67973 20.7867 9.08973 21.7267C10.6897 22.7967 13.3097 22.7967 14.9097 21.7267C16.3197 20.7867 16.3197 19.2467 14.9097 18.3067C13.3197 17.2467 10.6897 17.2467 9.08973 18.3067Z" stroke="#CCCCCC" stroke-linecap="round" stroke-linejoin="round"/>
</svg>
