<svg width="24" height="25" viewBox="0 0 24 25" fill="none" xmlns="http://www.w3.org/2000/svg">
<path d="M9 19.5273C9 20.2773 8.79 20.9873 8.42 21.5873C7.73 22.7473 6.46 23.5273 5 23.5273C3.54 23.5273 2.27 22.7473 1.58 21.5873C1.21 20.9873 1 20.2773 1 19.5273C1 17.3173 2.79 15.5273 5 15.5273C7.21 15.5273 9 17.3173 9 19.5273Z" stroke="#CCCCCC" stroke-miterlimit="10" stroke-linecap="round" stroke-linejoin="round"/>
<path d="M3.44141 19.5269L4.43141 20.5168L6.56141 18.5469" stroke="#CCCCCC" stroke-linecap="round" stroke-linejoin="round"/>
<path d="M17.7514 7.57731C17.5114 7.53731 17.2614 7.52732 17.0014 7.52732H7.00141C6.72141 7.52732 6.45141 7.54732 6.19141 7.58732C6.33141 7.30732 6.53141 7.04735 6.77141 6.80735L10.0214 3.54734C11.3914 2.18734 13.6114 2.18734 14.9814 3.54734L16.7314 5.3173C17.3714 5.9473 17.7114 6.74731 17.7514 7.57731Z" stroke="#CCCCCC" stroke-linecap="round" stroke-linejoin="round"/>
<path d="M22 12.5273V17.5273C22 20.5273 20 22.5273 17 22.5273H7.63C7.94 22.2673 8.21 21.9473 8.42 21.5873C8.79 20.9873 9 20.2773 9 19.5273C9 17.3173 7.21 15.5273 5 15.5273C3.8 15.5273 2.73 16.0573 2 16.8873V12.5273C2 9.80734 3.64 7.90734 6.19 7.58734C6.45 7.54734 6.72 7.52734 7 7.52734H17C17.26 7.52734 17.51 7.53733 17.75 7.57733C20.33 7.87733 22 9.78734 22 12.5273Z" stroke="#CCCCCC" stroke-linecap="round" stroke-linejoin="round"/>
<path d="M22 13.0273H19C17.9 13.0273 17 13.9273 17 15.0273C17 16.1273 17.9 17.0273 19 17.0273H22" stroke="#CCCCCC" stroke-linecap="round" stroke-linejoin="round"/>
</svg>
